<svg width="1280" height="420" viewBox="0 0 1280 420" fill="none" xmlns="http://www.w3.org/2000/svg">
  <defs>
    <linearGradient id="bg" x1="120" y1="40" x2="1160" y2="380" gradientUnits="userSpaceOnUse">
      <stop stop-color="#FFF6ED"/>
      <stop offset="1" stop-color="#EFF6FF"/>
    </linearGradient>
    <linearGradient id="card" x1="112" y1="64" x2="1168" y2="356" gradientUnits="userSpaceOnUse">
      <stop stop-color="#FFFFFF"/>
      <stop offset="1" stop-color="#FFFDFC"/>
    </linearGradient>
    <filter id="shadow" x="82" y="34" width="1116" height="352" filterUnits="userSpaceOnUse" color-interpolation-filters="sRGB">
      <feFlood flood-opacity="0" result="BackgroundImageFix"/>
      <feColorMatrix in="SourceAlpha" type="matrix" values="0 0 0 0 0 0 0 0 0 0 0 0 0 0 0 0 0 0 127 0" result="hardAlpha"/>
      <feOffset dy="8"/>
      <feGaussianBlur stdDeviation="15"/>
      <feColorMatrix type="matrix" values="0 0 0 0 0.0588235 0 0 0 0 0.0941176 0 0 0 0 0.168627 0 0 0 0.12 0"/>
      <feBlend mode="normal" in2="BackgroundImageFix" result="effect1_dropShadow_1_2"/>
      <feBlend mode="normal" in="SourceGraphic" in2="effect1_dropShadow_1_2" result="shape"/>
    </filter>
    <linearGradient id="terminal" x1="171" y1="124" x2="372" y2="296" gradientUnits="userSpaceOnUse">
      <stop stop-color="#1E293B"/>
      <stop offset="1" stop-color="#0F172A"/>
    </linearGradient>
    <linearGradient id="screen" x1="190" y1="144" x2="354" y2="258" gradientUnits="userSpaceOnUse">
      <stop stop-color="#E0F2FE"/>
      <stop offset="1" stop-color="#F8FAFC"/>
    </linearGradient>
    <linearGradient id="accent" x1="0" y1="0" x2="1" y2="1">
      <stop stop-color="#F97316"/>
      <stop offset="1" stop-color="#FB7185"/>
    </linearGradient>
  </defs>

  <rect width="1280" height="420" rx="28" fill="url(#bg)"/>

  <g filter="url(#shadow)">
    <rect x="112" y="64" width="1056" height="292" rx="28" fill="url(#card)"/>
    <rect x="112.75" y="64.75" width="1054.5" height="290.5" rx="27.25" stroke="#E2E8F0" stroke-width="1.5"/>
  </g>

  <circle cx="203" cy="112" r="10" fill="#F97316" fill-opacity="0.18"/>
  <circle cx="231" cy="112" r="10" fill="#FB7185" fill-opacity="0.2"/>
  <circle cx="259" cy="112" r="10" fill="#60A5FA" fill-opacity="0.2"/>

  <g>
    <rect x="171" y="126" width="204" height="152" rx="24" fill="url(#terminal)"/>
    <rect x="188" y="144" width="170" height="114" rx="18" fill="url(#screen)"/>
    <path d="M214 182L233 201L214 220" stroke="#2563EB" stroke-width="10" stroke-linecap="round" stroke-linejoin="round"/>
    <path d="M251 224H310" stroke="#F97316" stroke-width="10" stroke-linecap="round"/>
    <circle cx="226" cy="165" r="6" fill="#93C5FD"/>
    <circle cx="246" cy="165" r="6" fill="#FCA5A5"/>
    <rect x="206" y="290" width="136" height="16" rx="8" fill="#CBD5E1"/>
    <rect x="214" y="306" width="22" height="18" rx="9" fill="#334155"/>
    <rect x="310" y="306" width="22" height="18" rx="9" fill="#334155"/>
  </g>

  <g>
    <path d="M376 170C388 142 413 124 443 124C480 124 511 151 517 187C522 219 502 246 470 252C452 255 436 251 423 242C416 255 404 266 385 272" stroke="#FDBA74" stroke-width="10" stroke-linecap="round"/>
    <path d="M409 209C421 221 439 228 459 228C487 228 511 213 523 191" stroke="#FED7AA" stroke-width="10" stroke-linecap="round"/>
    <circle cx="438" cy="171" r="7" fill="#0F172A"/>
    <circle cx="481" cy="165" r="9" fill="#0F172A"/>
    <path d="M469 142L494 119" stroke="#FB7185" stroke-width="8" stroke-linecap="round"/>
    <circle cx="503" cy="110" r="20" fill="#FDE68A"/>
    <path d="M525 146L548 132" stroke="#F97316" stroke-width="8" stroke-linecap="round"/>
  </g>

  <g>
    <text x="590" y="192" fill="#0F4C96" font-family="Georgia, 'Times New Roman', serif" font-size="94" font-weight="700">EVA</text>
    <path d="M590 214H1036" stroke="#0F4C96" stroke-width="4" stroke-linecap="round" opacity="0.7"/>
    <text x="592" y="266" fill="#1D4F91" font-family="'Segoe UI', Arial, sans-serif" font-size="38" font-weight="700">Single-File Agent for Real Work</text>
    <text x="490" y="314" fill="#475569" font-family="'Segoe UI', Arial, sans-serif" font-size="23" letter-spacing="-0.2">
      Local models · Safe command execution · Directory-scoped sessions
    </text>
  </g>

  <rect x="112" y="64" width="1056" height="292" rx="28" stroke="url(#accent)" stroke-opacity="0.12" stroke-width="2"/>
</svg>
